<svg id="Layer_1" data-name="Layer 1" xmlns="http://www.w3.org/2000/svg" viewBox="0 0 16 15.81"><defs><style>.cls-1{fill:#fff;}</style></defs><title>sun</title><rect width="16" height="15.81"/><path class="cls-1" d="M8,10.84A2.84,2.84,0,1,1,10.84,8,2.84,2.84,0,0,1,8,10.84Zm0,.95A3.79,3.79,0,1,0,4.21,8,3.79,3.79,0,0,0,8,11.79ZM8,.43A.47.47,0,0,1,8.47.9V2.79a.47.47,0,1,1-.94,0V.9A.47.47,0,0,1,8,.43Zm0,12.3a.47.47,0,0,1,.47.48V15.1a.47.47,0,1,1-.94,0V13.21A.47.47,0,0,1,8,12.73ZM15.57,8a.47.47,0,0,1-.47.47H13.21a.47.47,0,1,1,0-.94H15.1A.47.47,0,0,1,15.57,8ZM3.27,8a.47.47,0,0,1-.48.47H.9a.47.47,0,0,1,0-.94H2.79A.47.47,0,0,1,3.27,8ZM13.35,2.65a.46.46,0,0,1,0,.67L12,4.65A.47.47,0,1,1,11.35,4l1.33-1.33A.46.46,0,0,1,13.35,2.65Zm-8.7,8.7a.46.46,0,0,1,0,.67L3.32,13.35a.47.47,0,0,1-.67,0,.47.47,0,0,1,0-.66L4,11.35A.46.46,0,0,1,4.65,11.35Zm8.7,2a.46.46,0,0,1-.67,0L11.35,12a.47.47,0,0,1,.67-.67l1.33,1.33A.46.46,0,0,1,13.35,13.35Zm-8.7-8.7a.46.46,0,0,1-.67,0L2.65,3.32a.47.47,0,1,1,.65-.69l0,0L4.65,4a.46.46,0,0,1,0,.67Z" transform="translate(0 -0.19)"/></svg>